<?xml version="1.0" standalone="no"?>
<!DOCTYPE svg PUBLIC "-//W3C//DTD SVG 20010904//EN"
 "http://www.w3.org/TR/2001/REC-SVG-20010904/DTD/svg10.dtd">
<svg version="1.0" xmlns="http://www.w3.org/2000/svg"
 width="800.000000pt" height="800.000000pt" viewBox="0 0 800.000000 800.000000"
 preserveAspectRatio="xMidYMid meet">
<metadata>
Created by potrace 1.14, written by Peter Selinger 2001-2017
</metadata>
<g transform="translate(0.000000,800.000000) scale(0.100000,-0.100000)"
fill="#000000" stroke="none">
<path d="M3758 7515 c-2 -1 -41 -5 -88 -9 -47 -4 -96 -8 -110 -11 -14 -2 -47
-6 -75 -9 -76 -9 -160 -22 -160 -26 0 0 -18 -3 -40 -5 -22 -2 -49 -6 -60 -9
-11 -2 -42 -10 -70 -16 -27 -6 -59 -14 -70 -16 -80 -16 -265 -69 -370 -105
-90 -31 -175 -63 -210 -78 -22 -10 -67 -28 -100 -41 -33 -13 -67 -30 -76 -37
-8 -7 -21 -13 -27 -13 -14 0 -216 -103 -220 -112 -2 -5 -8 -8 -13 -8 -5 0 -59
-30 -120 -67 -61 -38 -118 -72 -127 -78 -73 -43 -335 -239 -438 -328 -151
-131 -351 -337 -480 -496 -10 -12 -34 -39 -51 -60 -18 -20 -33 -41 -33 -48 0
-6 -4 -13 -9 -15 -18 -7 -168 -227 -264 -388 -103 -173 -225 -430 -292 -615
-18 -49 -38 -101 -43 -115 -24 -61 -105 -351 -117 -421 -3 -19 -8 -41 -10 -49
-2 -8 -7 -28 -10 -45 -2 -16 -7 -39 -9 -50 -2 -11 -7 -40 -11 -65 -4 -25 -9
-54 -11 -65 -7 -34 -24 -177 -31 -260 -9 -97 -9 -587 0 -670 4 -33 9 -85 12
-115 2 -30 7 -66 10 -80 2 -14 7 -44 10 -68 6 -39 24 -145 40 -227 3 -16 11
-48 17 -70 5 -22 11 -47 13 -55 24 -117 97 -350 165 -520 55 -138 70 -172 145
-320 87 -174 109 -215 118 -218 4 -2 7 -8 7 -13 0 -12 183 -296 199 -309 4 -3
15 -18 25 -35 23 -35 166 -214 212 -265 18 -19 42 -46 54 -60 55 -64 215 -222
328 -322 l30 -28 1204 0 1203 0 -1 43 c-4 107 92 200 201 193 124 -8 190 -80
194 -213 l1 -23 1203 0 c1133 0 1203 1 1218 17 9 10 43 41 76 70 75 66 214
208 326 333 46 51 146 177 205 260 34 47 66 91 73 98 6 7 16 23 23 35 6 12 37
60 67 107 30 47 58 92 62 100 4 8 19 35 33 60 44 76 151 291 189 380 53 123
148 387 160 444 3 11 11 40 19 65 9 25 18 61 21 80 3 19 8 37 10 41 2 3 6 17
9 31 2 13 10 47 16 74 14 61 18 80 24 125 3 19 8 46 11 60 5 23 7 39 20 130
23 169 28 250 29 515 1 215 -6 383 -18 455 -3 14 -8 52 -12 85 -8 68 -8 73
-18 135 -10 64 -14 85 -16 85 -1 0 -3 9 -5 20 -16 111 -105 445 -142 535 -3 8
-7 20 -8 25 -14 54 -146 369 -157 373 -4 2 -8 11 -8 19 0 17 -61 136 -72 141
-5 2 -8 11 -8 21 0 9 -4 21 -9 27 -5 5 -19 27 -31 49 -13 22 -33 58 -45 80
-31 54 -121 192 -197 300 -46 65 -181 236 -238 300 -110 124 -412 415 -481
463 -13 9 -30 22 -38 29 -16 17 -169 134 -192 148 -49 30 -173 111 -183 120
-6 6 -31 21 -56 34 -25 14 -48 29 -52 35 -4 6 -8 7 -8 2 0 -5 -8 -2 -17 7 -38
34 -377 196 -548 262 -38 15 -90 33 -115 41 -25 8 -54 19 -65 23 -19 8 -148
46 -245 72 -52 14 -57 15 -90 22 -14 3 -45 10 -70 16 -25 7 -61 14 -80 16 -19
3 -46 8 -60 12 -14 3 -34 7 -45 9 -19 1 -59 7 -135 19 -39 5 -106 13 -190 21
-59 6 -576 14 -582 9z m340 -781 c128 -82 135 -253 13 -337 -39 -27 -55 -32
-106 -32 -128 0 -208 83 -200 207 5 82 39 132 114 169 45 22 140 18 179 -7z
m-2022 -419 c245 -30 430 -136 570 -325 106 -145 156 -311 149 -500 -3 -90 -9
-145 -15 -145 -1 0 -3 -9 -5 -20 -10 -55 -63 -175 -105 -239 -85 -130 -222
-247 -350 -299 -59 -24 -135 -47 -185 -55 -52 -8 -219 -9 -270 0 -89 14 -273
85 -283 110 -2 4 -8 8 -14 8 -6 0 -29 15 -52 33 -181 142 -289 337 -311 562
-8 75 -8 68 -1 146 7 73 9 82 29 154 44 155 149 309 277 405 25 19 47 37 50
40 12 13 129 70 144 70 9 0 16 4 16 8 0 5 6 9 13 9 6 1 39 8 72 17 33 9 93 19
134 21 41 3 76 7 79 9 3 3 8 3 12 1 4 -3 25 -7 46 -10z m4006 0 c214 -22 406
-129 553 -308 62 -75 130 -226 151 -334 4 -19 14 -121 16 -148 2 -59 -32 -245
-53 -285 -4 -8 -13 -30 -20 -49 -33 -88 -147 -232 -239 -301 -25 -19 -47 -37
-50 -40 -10 -12 -150 -81 -150 -74 0 3 -6 2 -12 -4 -7 -5 -29 -13 -48 -18 -50
-11 -50 -11 -52 -14 -22 -17 -244 -20 -324 -5 -106 21 -262 82 -272 107 -2 4
-8 8 -14 8 -15 0 -87 58 -146 119 -86 89 -183 262 -198 356 -1 11 -5 31 -8 45
-6 24 -19 144 -18 165 0 11 10 94 16 135 2 14 15 61 30 105 97 300 385 523
700 540 38 3 71 7 74 9 3 3 9 3 13 0 5 -2 28 -7 51 -9z m-2517 -414 c77 -30
91 -39 164 -112 87 -88 128 -218 106 -339 -7 -35 -28 -91 -46 -120 -5 -8 -13
-25 -18 -36 -18 -41 -139 -134 -193 -149 -5 -2 -9 -3 -10 -4 -11 -9 -66 -15
-134 -15 -111 0 -186 30 -262 105 -70 68 -72 71 -100 137 -19 43 -35 132 -34
177 1 26 15 83 27 110 7 17 16 37 19 45 31 78 166 190 247 205 12 2 24 6 26 8
9 9 180 -1 208 -12z m1120 0 c35 -13 76 -33 90 -43 40 -29 115 -103 115 -114
0 -8 3 -14 8 -14 4 0 18 -28 32 -62 20 -50 25 -79 24 -148 -1 -97 -4 -113 -36
-178 -21 -43 -139 -172 -158 -172 -4 0 -25 -8 -46 -17 -58 -25 -61 -25 -159
-26 -75 -1 -99 3 -145 23 -63 28 -67 30 -125 85 -118 111 -155 281 -94 437 39
100 168 215 260 233 12 2 24 6 26 9 9 8 179 -2 208 -13z m-475 -1076 c33 -7
203 -51 225 -59 6 -2 26 -9 45 -17 19 -7 38 -12 43 -11 4 1 7 -2 7 -8 0 -5 8
-10 18 -11 9 0 31 -9 47 -20 17 -10 44 -25 60 -33 98 -47 293 -214 377 -324
24 -31 45 -59 48 -62 13 -13 81 -132 113 -196 33 -70 82 -207 92 -262 5 -27
10 -51 22 -107 9 -43 9 -310 0 -375 -6 -44 -30 -152 -50 -225 -27 -98 -120
-278 -198 -381 -56 -76 -196 -224 -210 -224 -4 0 -21 -14 -38 -31 -17 -17 -31
-27 -31 -22 0 4 -4 4 -8 -2 -23 -32 -185 -122 -304 -169 -72 -28 -201 -61
-288 -73 -69 -9 -298 -10 -365 0 -41 5 -209 46 -250 60 -18 7 -50 20 -95 39
-25 10 -47 20 -50 20 -3 1 -27 15 -55 31 -27 17 -59 35 -70 41 -28 15 -99 69
-103 79 -2 4 -8 7 -14 7 -16 0 -187 175 -235 240 -39 52 -133 204 -133 215 0
3 -6 18 -14 33 -17 35 -73 198 -80 235 -3 15 -7 35 -10 45 -20 70 -28 336 -13
442 32 228 134 468 272 640 52 65 255 257 255 242 0 -4 4 -2 8 3 23 32 185
122 303 169 75 29 208 63 284 72 28 4 52 8 53 9 6 6 306 -4 342 -10z m-2170
-909 c140 -15 262 -102 321 -230 28 -60 33 -81 33 -150 0 -45 -2 -94 -6 -111
-25 -117 -131 -235 -253 -281 -41 -15 -52 -16 -130 -18 -87 -1 -146 14 -210
52 -47 29 -125 102 -125 119 0 6 -4 13 -8 15 -4 2 -18 27 -31 57 -33 77 -37
195 -9 276 34 103 122 201 218 242 34 14 47 18 99 28 13 2 26 6 29 9 2 3 8 4
11 2 3 -2 31 -7 61 -10z m4085 -16 c101 -33 200 -126 244 -228 25 -59 34 -176
19 -249 -21 -105 -131 -232 -238 -273 -90 -35 -220 -34 -300 0 -62 28 -64 29
-131 90 -27 25 -49 50 -49 57 0 7 -3 13 -7 13 -8 0 -39 68 -50 111 -12 45 -6
210 7 227 2 1 3 5 4 10 10 47 110 175 150 193 12 5 28 13 36 18 16 10 76 36
100 43 30 9 176 1 215 -12z m-5060 -211 c60 -41 89 -92 91 -162 1 -62 -5 -79
-43 -133 -52 -72 -183 -94 -257 -43 -58 39 -88 90 -92 155 -5 92 38 161 126
200 42 20 134 10 175 -17z m6080 0 c101 -69 124 -210 48 -295 -50 -55 -82 -69
-153 -68 -84 1 -130 27 -175 97 -21 32 -28 140 -11 171 47 89 108 126 199 122
40 -3 68 -11 92 -27z m-5055 -1376 c171 -14 355 -104 482 -237 76 -79 78 -82
78 -94 0 -7 4 -12 8 -12 9 0 84 -147 100 -195 15 -44 34 -130 37 -173 2 -20 4
-39 5 -42 2 -3 1 -9 0 -15 -1 -5 -3 -41 -5 -80 -8 -216 -125 -437 -305 -575
-25 -19 -47 -37 -50 -40 -12 -13 -129 -70 -144 -70 -9 0 -16 -5 -16 -12 0 -6
-2 -9 -6 -6 -3 3 -26 -1 -52 -9 -79 -24 -83 -25 -197 -28 -106 -2 -190 9 -280
36 -48 15 -189 88 -193 100 -2 5 -9 9 -14 9 -12 0 -15 3 -94 78 -135 129 -220
303 -239 492 -2 19 -4 40 -5 45 -1 6 -1 12 0 15 1 3 3 37 5 75 1 39 8 91 14
116 15 67 61 189 81 219 9 14 29 43 43 65 33 50 107 129 167 177 54 43 170
108 193 108 9 0 17 5 17 12 0 6 2 9 6 6 3 -3 26 1 52 9 69 21 79 23 167 29 44
3 82 7 84 10 2 2 9 0 15 -3 6 -4 27 -8 46 -10z m3973 2 c196 -15 377 -100 509
-240 27 -27 55 -57 63 -66 8 -9 15 -21 15 -27 0 -7 4 -12 8 -12 11 0 88 -156
106 -215 8 -27 19 -75 25 -106 12 -67 7 -257 -8 -306 -1 -2 -1 -4 -1 -5 3 -24
-89 -238 -110 -258 -3 -3 -21 -25 -40 -50 -44 -59 -141 -150 -159 -150 -8 0
-11 -3 -8 -7 11 -11 -123 -81 -208 -109 -110 -36 -107 -35 -226 -39 -103 -3
-210 10 -284 36 -37 13 -158 71 -165 78 -3 3 -27 22 -55 41 -61 42 -154 138
-192 196 -33 52 -72 136 -91 194 -23 71 -45 181 -37 188 2 3 0 12 -5 22 -5 10
-6 20 -3 24 3 3 7 36 8 73 2 70 30 199 47 221 6 6 7 12 3 12 -4 0 12 35 35 77
47 87 124 187 178 229 19 16 40 34 46 40 20 20 151 95 176 101 14 3 30 9 35
13 10 7 75 25 125 36 14 3 47 7 73 9 27 2 51 6 54 9 3 3 9 3 13 1 4 -2 37 -7
73 -10z m-2580 -400 c88 -6 163 -42 236 -116 77 -76 114 -155 115 -244 1 -30
5 -55 9 -55 5 0 5 -5 2 -10 -4 -6 -8 -23 -11 -38 -19 -119 -105 -232 -220
-291 -58 -30 -78 -34 -179 -34 -73 0 -101 4 -145 24 -67 28 -69 30 -139 100
-54 55 -94 130 -105 199 -3 14 -5 27 -6 30 -2 3 -2 8 -1 12 0 4 3 33 6 65 7
91 42 168 105 233 30 32 62 60 70 64 8 3 22 10 30 15 47 27 157 61 173 53 5
-2 32 -6 60 -7z m1232 -28 c61 -26 175 -119 175 -144 0 -7 3 -13 8 -13 14 0
54 -116 57 -169 1 -29 5 -54 8 -57 3 -3 -1 -25 -9 -50 -7 -24 -11 -44 -8 -44
3 0 2 -6 -3 -12 -4 -7 -8 -15 -9 -18 -11 -37 -18 -50 -25 -50 -5 0 -9 -7 -9
-15 0 -8 -26 -41 -57 -72 -54 -54 -121 -96 -175 -110 -33 -8 -178 -7 -213 1
-77 19 -168 85 -233 171 -26 33 -55 126 -56 177 0 32 -5 58 -9 58 -5 0 -5 5
-2 10 4 6 8 23 11 38 14 84 80 195 146 245 41 32 108 66 138 72 13 2 25 6 27
9 3 2 44 3 91 2 67 -3 101 -9 147 -29z"/>
<path d="M3850 4305 c-36 -7 -77 -18 -92 -24 -16 -6 -28 -8 -28 -6 0 3 -16 -4
-35 -15 -20 -11 -42 -20 -50 -20 -8 0 -15 -4 -15 -9 0 -5 -15 -14 -32 -22 -18
-7 -35 -15 -38 -18 -3 -4 -22 -19 -44 -35 -49 -37 -115 -103 -152 -152 -16
-22 -32 -41 -35 -44 -3 -3 -12 -20 -20 -37 -8 -18 -17 -33 -21 -33 -5 0 -7 -3
-6 -7 1 -5 -6 -23 -15 -40 -10 -18 -18 -36 -18 -40 -1 -5 -3 -12 -5 -18 -13
-41 -27 -96 -32 -130 -8 -49 -8 -227 0 -275 19 -110 83 -256 151 -344 42 -54
159 -166 174 -166 6 0 13 -4 15 -8 10 -25 199 -108 298 -130 61 -13 276 -6
345 12 173 46 321 143 436 286 62 76 133 223 144 295 2 11 4 20 5 20 14 0 21
235 9 303 -11 63 -57 214 -67 222 -4 3 -14 19 -22 35 -36 74 -136 190 -220
255 -75 59 -224 126 -325 145 -62 13 -242 12 -305 0z"/>
</g>
</svg>
