<svg width="100" height="88" viewBox="0 0 100 88" fill="none" xmlns="http://www.w3.org/2000/svg">
  <style>
    #logo-center {
      fill: #ea580c;
    }

    path {
      fill: #000;
    }

    @media (prefers-color-scheme: dark) {
      path {
        fill: #a6adbb;
      }
    }
  </style>
  <path fill-rule="evenodd" clip-rule="evenodd"
    d="M82.4976 88C93.2106 78.8296 100 65.2077 100 50C100 22.3858 77.6142 0 50 0C22.3858 0 0 22.3858 0 50C0 65.2077 6.78939 78.8296 17.5024 88H47.55C47.5172 87.8384 47.5 87.6712 47.5 87.5C47.5 86.1193 48.6193 85 50 85C51.3807 85 52.5 86.1193 52.5 87.5C52.5 87.6712 52.4828 87.8384 52.45 88H82.4976ZM66.5 50C66.5 59.1127 59.1127 66.5 50 66.5C40.8873 66.5 33.5 59.1127 33.5 50C33.5 40.8873 40.8873 33.5 50 33.5C59.1127 33.5 66.5 40.8873 66.5 50ZM85 25C85 30.5228 80.5229 35 75 35C69.4771 35 65 30.5228 65 25C65 19.4771 69.4771 15 75 15C80.5229 15 85 19.4771 85 25ZM25 35C30.5228 35 35 30.5228 35 25C35 19.4771 30.5228 15 25 15C19.4772 15 15 19.4771 15 25C15 30.5228 19.4772 35 25 35ZM35 75C35 80.5228 30.5228 85 25 85C19.4772 85 15 80.5228 15 75C15 69.4772 19.4772 65 25 65C30.5228 65 35 69.4772 35 75ZM75 85C80.5229 85 85 80.5228 85 75C85 69.4772 80.5229 65 75 65C69.4771 65 65 69.4772 65 75C65 80.5228 69.4771 85 75 85ZM48 25C48 27.7614 45.7614 30 43 30C40.2386 30 38 27.7614 38 25C38 22.2386 40.2386 20 43 20C45.7614 20 48 22.2386 48 25ZM57 30C59.7614 30 62 27.7614 62 25C62 22.2386 59.7614 20 57 20C54.2386 20 52 22.2386 52 25C52 27.7614 54.2386 30 57 30ZM62 75C62 77.7614 59.7614 80 57 80C54.2386 80 52 77.7614 52 75C52 72.2386 54.2386 70 57 70C59.7614 70 62 72.2386 62 75ZM75 55C77.7614 55 80 52.7614 80 50C80 47.2386 77.7614 45 75 45C72.2386 45 70 47.2386 70 50C70 52.7614 72.2386 55 75 55ZM48 75C48 77.7614 45.7614 80 43 80C40.2386 80 38 77.7614 38 75C38 72.2386 40.2386 70 43 70C45.7614 70 48 72.2386 48 75ZM25 55C27.7614 55 30 52.7614 30 50C30 47.2386 27.7614 45 25 45C22.2386 45 20 47.2386 20 50C20 52.7614 22.2386 55 25 55ZM52.5 12C52.5 13.3807 51.3807 14.5 50 14.5C48.6193 14.5 47.5 13.3807 47.5 12C47.5 10.6193 48.6193 9.5 50 9.5C51.3807 9.5 52.5 10.6193 52.5 12ZM90.5 50C90.5 51.3807 89.3807 52.5 88 52.5C86.6193 52.5 85.5 51.3807 85.5 50C85.5 48.6193 86.6193 47.5 88 47.5C89.3807 47.5 90.5 48.6193 90.5 50ZM12 52.5C13.3807 52.5 14.5 51.3807 14.5 50C14.5 48.6193 13.3807 47.5 12 47.5C10.6193 47.5 9.5 48.6193 9.5 50C9.5 51.3807 10.6193 52.5 12 52.5Z" />
  <path id="logo-center"
    d="M60 50C60 55.5228 55.5228 60 50 60C44.4772 60 40 55.5228 40 50C40 44.4772 44.4772 40 50 40C55.5228 40 60 44.4772 60 50Z" />
</svg>